inDegrees=yes
name=ik_S51_A02_T02
DataType=double
version=3
OpenSimVersion=4.3-2021-08-27-4bc7ad9
endheader
time	pelvis_tilt	pelvis_list	pelvis_rotation	pelvis_tx	pelvis_ty	pelvis_tz	hip_flexion_r	hip_adduction_r	hip_rotation_r	knee_angle_r	knee_angle_r_beta	ankle_angle_r	subtalar_angle_r	mtp_angle_r	hip_flexion_l	hip_adduction_l	hip_rotation_l	knee_angle_l	knee_angle_l_beta	ankle_angle_l	subtalar_angle_l	mtp_angle_l	lumbar_extension	lumbar_bending	lumbar_rotation	arm_flex_r	arm_add_r	arm_rot_r	elbow_flex_r	pro_sup_r	wrist_flex_r	wrist_dev_r	arm_flex_l	arm_add_l	arm_rot_l	elbow_flex_l	pro_sup_l	wrist_flex_l	wrist_dev_l
10.39999999999987	-1.851300071647077	3.875676073204129	-85.63708341401453	0	0.9399999999999999	0	18.34995001887015	-10.00524987940927	-12.30241486870522	21.02150031902442	0.3668943942760145	0	0	0	4.038689711158846	0.7588455415582334	-3.704949913313415	5.88749228010138	0.1027561249735173	0	0	0	0	0	0	23.96226280454867	-23.96226280454867	3.642914644547723	66.83893727583951	86.35708556239379	0	0	23.96226280454867	-23.96226280454867	3.642914644547723	66.83893727583951	86.35708556214121	0	0
10.41999999999987	-1.847672168749289	3.875822296682735	-85.34784863847693	0	0.9399999999999999	0	17.37227411899544	-10.08581887543537	-13.71603622708833	25.03395326165924	0.4369249092063273	0	0	0	4.072158434685864	0.9307650260002432	-3.394684276934897	4.860096404563795	0.08482468422397658	0	0	0	0	0	0	23.97019659991086	-23.97019659991086	3.643917097853328	66.85284798405853	86.35608310914287	0	0	23.97019659991086	-23.97019659991086	3.643917097853328	66.85284798405853	86.35608310889047	0	0
10.43999999999987	-1.806086192933806	3.916440915958549	-85.19482836369465	0	0.9399999999999999	0	16.34236052357814	-10.07077860007086	-15.24191484778394	29.09295342103811	0.5077678263264631	0	0	0	4.85646010240985	0.9281674058780562	-4.490156266116382	4.871135253473733	0.08501734848308519	0	0	0	0	0	0	23.97976812623174	-23.97976812623174	3.645122301653552	66.86956442398893	86.3548779054084	0	0	23.97976812623174	-23.97976812623174	3.645122301653552	66.86956442398893	86.35487790515616	0	0
10.45999999999987	-1.714103358626575	3.962205176596624	-85.02023258633822	0	0.9399999999999999	0	15.11868250484924	-10.0465153444394	-16.5318063784946	32.73971255518173	0.5714157802444468	0	0	0	5.371767406664753	1.121388991186448	-5.007819145380734	3.295692296820102	0.05752068171212502	0	0	0	0	0	0	23.98930269079043	-23.98930269079043	3.646322754498339	66.88621393961502	86.35367745262911	0	0	23.98930269079043	-23.98930269079043	3.646322754498339	66.88621393961502	86.3536774523771	0	0
10.47999999999987	-1.658403452241146	4.020051313463278	-84.96202132161086	0	0.9399999999999999	0	13.80317614678698	-9.893635428998136	-17.30032902167784	36.04597854315852	0.629121007681345	0	0	0	5.437870215081772	1.234953864867039	-4.938605243107989	2.397252070315158	0.04183994162725012	0	0	0	0	0	0	23.99768257428842	-23.99768257428842	3.647381609652621	66.90090531134267	86.35261859753254	0	0	23.99768257428842	-23.99768257428842	3.647381609652621	66.90090531134267	86.35261859728072	0	0
10.49999999999986	-1.624562277394147	4.109788376248928	-84.88545671625994	0	0.9399999999999999	0	12.33136771149719	-9.589649155102768	-17.89398987133039	38.97574408620019	0.6802550627189018	0	0	0	6.086296362237881	1.358961159118616	-4.967294718889739	2.128309428264911	0.03714600702446077	0	0	0	0	0	0	24.00764850196097	-24.00764850196097	3.648639929950439	66.91836172842413	86.35136027730333	0	0	24.00764850196097	-24.00764850196097	3.648639929950439	66.91836172842413	86.3513602770518	0	0
10.51999999999986	-1.614401318550609	4.196801652789437	-84.83031700757458	0	0.9399999999999999	0	10.74918043059676	-8.950188426262251	-18.37054045445755	39.25343840777273	0.6851017429444347	0	0	0	6.20697544722312	1.434336659303174	-4.842860893813786	1.534941372854739	0.0267897807813971	0	0	0	0	0	0	24.01464657227932	-24.01464657227932	3.649524392555983	66.9306326107384	86.35047581474599	0	0	24.01464657227932	-24.01464657227932	3.649524392555983	66.9306326107384	86.35047581449462	0	0
10.53999999999986	-1.631000303747259	4.276205061592175	-84.68152468950532	0	0.9399999999999999	0	10.66982765351512	-9.247792411000418	-18.49448599041475	43.03332294812381	0.7510731735187934	0	0	0	7.739836650322547	1.411259067987627	-4.71337191108281	2.829423743388169	0.0493827602562267	0	0	0	0	0	0	24.03060449770959	-24.03060449770959	3.651516714381963	66.95822999801297	86.34848349302828	0	0	24.03060449770959	-24.03060449770959	3.651516714381963	66.95822999801297	86.34848349277735	0	0
10.55999999999986	-1.548024480533809	4.219529425947808	-84.55520478653639	0	0.9399999999999999	0	8.804298997131507	-8.80484846304509	-18.8896762719527	44.54225912391966	0.7774090779888829	0	0	0	8.537363494633556	1.606531958333857	-4.551783568368532	2.557511723863652	0.04463700023977676	0	0	0	0	0	0	24.0375259274453	-24.0375259274453	3.652387120927532	66.97029717952377	86.34761308653016	0	0	24.0375259274453	-24.0375259274453	3.652387120927532	66.97029717952377	86.34761308627932	0	0
10.57999999999986	-1.41005647122325	4.159779786834884	-84.55390938594144	0	0.9399999999999999	0	5.380428041142256	-7.53568572064235	-19.53728698216889	43.88324621100499	0.7659071328453634	0	0	0	9.26524926114657	1.698718755379941	-4.812115253285469	2.770370192134775	0.04835208135185975	0	0	0	0	0	0	24.12065212050206	-24.12065212050206	3.66140886095768	67.09312307941596	86.33859134698018	0	0	24.12065212050206	-24.12065212050206	3.66140886095768	67.09312307941596	86.33859134673101	0	0
10.59999999999986	-1.339256359991501	4.100457296090318	-84.53041992800412	0	0.9399999999999999	0	5.26429659727381	-7.71738910630378	-19.4632555162409	46.19286869824565	0.8062176497258137	0	0	0	9.965235744003403	1.62508089963809	-5.391262493643254	2.987070058955436	0.05213420751651349	0	0	0	0	0	0	24.13004938293634	-24.13004938293634	3.662591304259639	67.10951143342791	86.33740890374267	0	0	24.13004938293634	-24.13004938293634	3.662591304259639	67.10951143342791	86.33740890349367	0	0
10.61999999999986	-1.337562670040181	4.100660154026645	-84.5287837086867	0	0.9399999999999999	0	2.001419012004114	-6.1348040803754	-20.00287041389856	44.81279032726936	0.7821307382167176	0	0	0	11.49919572079753	1.339166452078455	-6.815641930852051	4.735145183371945	0.08264387400979109	0	0	0	0	0	0	24.13949983782221	-24.13949983782221	3.663780393608839	67.12599102481802	86.33621981445827	0	0	24.13949983782221	-24.13949983782221	3.663780393608839	67.12599102481802	86.33621981420946	0	0
10.63999999999986	-0.9964659227849947	3.740750434169304	-84.37102391589193	0	0.9399999999999999	0	1.658692791005928	-6.325195350686377	-20.01752293511134	45.48295511079451	0.7938273202201465	0	0	0	11.09973134180509	1.713246735877925	-6.72645013926696	3.96629434519685	0.06922489542691758	0	0	0	0	0	0	24.14521423797291	-24.14521423797291	3.66449935909023	67.13595499900192	86.335500849016	0	0	24.14521423797291	-24.14521423797291	3.66449935909023	67.13595499900192	86.33550084876734	0	0
10.65999999999986	-0.8483509501951197	3.511860278320436	-84.31035834970115	0	0.9399999999999999	0	-0.104463518925689	-5.44290827659481	-20.10942873492828	43.71123931027211	0.7629050460914235	0	0	0	12.44945138014943	1.658503088803565	-7.510691082042744	4.861036793464657	0.08484109710654585	0	0	0	0	0	0	24.22869984674825	-24.22869984674825	3.673571222205097	67.25950194677398	86.32642898638422	0	0	24.22869984674825	-24.22869984674825	3.673571222205097	67.25950194677398	86.32642898613724	0	0
10.67999999999986	-0.7486887806346723	3.334090919604869	-84.25217716383617	0	0.9399999999999999	0	-2.718245649298461	-3.628382260636923	-19.07877394415829	40.14602582975222	0.7006803323198647	0	0	0	12.23007300575731	1.748980844991182	-7.5429576173238	3.950368121869078	0.06894693039244001	0	0	0	0	0	0	24.23634685072597	-24.23634685072597	3.674530700683225	67.2727897944096	86.32546950795832	0	0	24.23634685072597	-24.23634685072597	3.674530700683225	67.2727897944096	86.3254695077115	0	0
10.69999999999986	-0.7130314714724731	3.122566380717572	-84.31661066002813	0	0.9399999999999999	0	-3.757004800878794	-2.523701197148805	-18.25299226674822	37.73229541610901	0.658552789346266	0	0	0	12.02977262103221	1.749062764155783	-7.611758762204511	3.980803931888206	0.06947813548778529	0	0	0	0	0	0	24.24492196889195	-24.24492196889195	3.675606068526186	67.28768109123575	86.32439414017387	0	0	24.24492196889195	-24.24492196889195	3.675606068526186	67.28768109123575	86.32439413992728	0	0
10.71999999999986	-0.7757622335596779	2.88317202443622	-84.43624021914493	0	0.9399999999999999	0	-4.647712187011923	-1.364770160090334	-17.23794627490405	35.97005543905366	0.6277958995363808	0	0	0	13.57703091292058	1.47573404005827	-8.340943843484592	3.114419982843291	0.05435688299052074	0	0	0	0	0	0	24.24810246107387	-24.24810246107387	3.676111777333495	67.29483723174755	86.32388843139485	0	0	24.24810246107387	-24.24810246107387	3.676111777333495	67.29483723174755	86.32388843114835	0	0
10.73999999999986	-0.9099902103496923	2.617201703975049	-84.5579192998153	0	0.9399999999999999	0	-4.684034580022772	-0.8442262984281208	-16.70918477341186	32.80776869551281	0.5726035839694236	0	0	0	13.32023235666751	1.273692160288388	-8.457184239807846	2.301028062805095	0.04016051587673578	0	0	0	0	0	0	24.25753587624667	-24.25753587624667	3.677291110355973	67.31116143021708	86.3227090984365	0	0	24.25753587624667	-24.25753587624667	3.677291110355973	67.31116143021708	86.32270909819024	0	0
10.75999999999986	-0.9876465359619148	2.485295889923953	-84.57705391601399	0	0.9399999999999999	0	-5.323612252601318	0.3520597294143533	-15.84725425339731	30.79842062482077	0.5375338443172516	0	0	0	15.30796595789148	0.952476172811757	-8.992611943173133	3.367662838835974	0.0587768046347469	0	0	0	0	0	0	24.33204109424251	-24.33204109424251	3.685388280798492	67.42143230930411	86.31461192842518	0	0	24.33204109424251	-24.33204109424251	3.685388280798492	67.42143230930411	86.31461192818045	0	0
10.77999999999986	-1.174712153151537	2.220020174339631	-84.53962514634043	0	0.9399999999999999	0	-5.396554594451549	0.8707650331778288	-15.69446956775771	28.88640876650196	0.5041629420524131	0	0	0	16.17600560712709	0.6299320463282516	-9.12401612976331	3.386972143335633	0.05911381557453611	0	0	0	0	0	0	24.33701017799448	-24.33701017799448	3.68600961615926	67.43003034321127	86.31399059309827	0	0	24.33701017799448	-24.33701017799448	3.68600961615926	67.43003034321127	86.31399059285361	0	0
